<?xml version="1.0" standalone="no"?>
<!DOCTYPE svg PUBLIC "-//W3C//DTD SVG 20010904//EN"
 "http://www.w3.org/TR/2001/REC-SVG-20010904/DTD/svg10.dtd">
<svg version="1.0" xmlns="http://www.w3.org/2000/svg"
 width="1280.000000pt" height="1280.000000pt" viewBox="0 0 1280.000000 1280.000000"
 preserveAspectRatio="xMidYMid meet">
<metadata>
Created by potrace 1.11, written by Peter Selinger 2001-2013
</metadata>
<g transform="translate(0.000000,1280.000000) scale(0.100000,-0.100000)"
fill="#000000" stroke="none">
<path d="M0 7160 l0 -5640 93 6 c673 41 1055 364 1175 994 47 241 47 245 47
2280 l0 1925 -245 5 -245 5 -3 753 -2 752 1360 0 1360 0 0 -2618 c0 -2620 -2
-2779 -36 -3062 -64 -542 -227 -1016 -476 -1383 -125 -184 -349 -419 -529
-554 -408 -307 -926 -505 -1571 -603 -121 -18 -20 -18 5875 -19 l5997 -1 0
6400 0 6400 -6400 0 -6400 0 0 -5640z m2136 4810 c39 -38 79 -70 87 -70 32 0
48 30 41 75 -3 25 -2 45 4 49 12 7 123 -55 162 -89 14 -12 36 -28 49 -35 24
-13 245 -63 440 -100 78 -15 419 -185 469 -233 64 -62 302 -388 302 -413 0 -8
9 -31 20 -51 11 -21 20 -45 20 -53 0 -8 7 -24 15 -34 9 -12 15 -42 15 -78 0
-33 6 -71 14 -86 33 -64 38 -131 22 -282 -8 -80 -22 -172 -30 -205 -23 -99
-58 -257 -66 -305 -8 -44 4 -123 22 -146 11 -15 18 -108 8 -123 -4 -8 -12 -1
-20 19 l-13 32 -19 -68 c-10 -38 -16 -81 -13 -96 3 -18 0 -28 -8 -28 -6 0 -21
-14 -32 -30 -11 -16 -23 -30 -27 -30 -4 0 -14 -7 -22 -16 -15 -14 -16 -13 -16
8 0 13 5 41 10 63 5 22 12 85 15 140 6 92 5 98 -9 75 -8 -14 -15 -34 -16 -45
0 -31 -31 -197 -42 -227 -6 -15 -19 -30 -29 -33 -10 -4 -19 -10 -19 -14 0 -13
-74 -29 -167 -37 -46 -3 -83 -9 -83 -13 0 -6 -303 -5 -375 2 -143 14 -184 34
-218 105 l-27 57 6 -46 c8 -58 -10 -74 -38 -36 -10 14 -25 24 -33 21 -7 -3
-26 1 -42 10 -18 10 -22 15 -11 16 9 0 18 6 21 13 3 9 9 9 26 -1 21 -12 21
-11 16 45 l-6 58 21 -37 c11 -21 25 -38 30 -38 12 0 13 -5 -4 57 -21 78 -49
132 -68 133 -19 0 -63 -86 -71 -140 -8 -53 -17 -93 -23 -102 -10 -16 9 -8 23
10 12 16 13 15 11 -8 -2 -14 -9 -25 -18 -25 -8 0 -28 -15 -45 -33 -53 -58
-166 -77 -459 -75 -222 2 -312 13 -370 46 -35 19 -41 30 -57 87 -10 36 -18 79
-19 96 0 17 -4 44 -10 60 -5 16 -14 47 -19 70 -9 33 -17 43 -46 54 -19 8 -35
18 -35 24 0 6 -3 6 -9 0 -14 -14 -28 -106 -20 -134 4 -14 7 -40 8 -57 1 -38
32 -134 68 -211 14 -29 23 -55 21 -57 -2 -3 -20 0 -39 5 -18 6 -59 10 -89 10
-58 0 -130 30 -178 73 -45 42 -17 51 35 11 48 -36 96 -54 149 -54 49 0 57 16
16 35 -12 5 -22 13 -22 18 0 5 -11 23 -25 41 -15 19 -25 46 -25 65 0 17 -4 39
-10 49 -5 9 -14 36 -20 60 -7 25 -17 42 -25 42 -20 0 -20 71 0 126 13 37 12
47 -5 100 -21 67 -68 184 -80 199 -22 27 -45 138 -47 220 -2 140 -14 247 -30
271 -12 20 -10 32 21 125 19 57 42 127 51 154 9 28 34 91 55 140 21 50 41 101
45 115 17 56 49 103 120 176 79 82 105 124 105 172 0 17 3 37 6 46 8 21 99 66
133 66 36 0 51 17 51 57 0 19 6 35 13 37 6 2 39 9 72 15 33 7 85 17 115 23 71
14 156 47 175 68 9 10 17 39 20 66 2 27 4 50 5 52 2 14 36 -10 96 -68z m-1011
-2182 c-14 -35 -32 -55 -40 -46 -8 8 14 71 32 90 24 27 29 4 8 -44z m1410 -28
c3 -5 1 -10 -4 -10 -6 0 -11 5 -11 10 0 6 2 10 4 10 3 0 8 -4 11 -10z m1265
-160 c0 -26 -65 -81 -113 -95 -55 -16 -163 -20 -171 -7 -7 12 31 52 49 52 8 0
15 -5 15 -11 0 -8 20 -10 59 -7 50 3 67 10 107 41 52 40 54 42 54 27z m-623
-126 c-3 -3 -12 -4 -19 -1 -8 3 -5 6 6 6 11 1 17 -2 13 -5z m-688 -15 c23 -8
39 -8 59 0 22 9 35 9 58 0 16 -6 45 -15 64 -19 269 -59 366 -102 331 -144 -8
-9 -43 -7 -148 9 -181 28 -445 26 -643 -4 -74 -11 -144 -22 -155 -23 -28 -4
-31 29 -4 58 12 13 30 24 39 24 9 0 20 3 24 7 4 4 82 28 174 54 92 26 167 48
168 48 1 1 15 -4 33 -10z m646 1 c-4 -6 -11 -7 -17 -4 -6 4 -14 0 -19 -7 -7
-11 -9 -10 -9 4 0 12 8 17 26 17 14 0 23 -4 19 -10z m-1596 -160 c6 8 12 12
14 10 2 -3 14 -20 26 -37 12 -18 28 -33 34 -33 23 0 127 -71 127 -86 0 -11 6
-13 20 -9 10 3 33 -1 49 -9 17 -9 42 -16 56 -16 14 0 28 -6 31 -14 3 -9 24
-13 62 -14 77 -1 114 -6 137 -20 15 -8 24 -7 35 2 20 17 78 28 85 16 7 -11 68
-14 78 -3 4 3 -5 17 -19 30 -30 28 -27 49 7 46 13 -2 98 -4 189 -4 126 -1 173
2 200 13 l35 15 -58 13 c-47 11 -68 11 -106 1 -50 -13 -119 -12 -127 1 -8 12
-47 10 -108 -6 -70 -19 -149 -9 -154 18 -4 21 16 38 37 31 17 -6 81 10 145 37
48 20 51 20 101 2 42 -14 58 -15 85 -6 47 17 99 15 161 -7 30 -10 75 -21 102
-25 78 -12 53 -59 -31 -59 -26 0 -41 -2 -34 -4 15 -6 16 -49 1 -58 -6 -4 4
-15 23 -25 18 -10 37 -15 42 -12 5 3 21 6 35 8 14 1 55 5 90 8 39 4 67 2 71
-4 4 -7 35 -5 91 5 46 8 96 15 110 15 15 0 32 7 39 15 15 18 76 48 96 48 8 0
14 6 14 14 0 7 9 12 22 10 17 -1 24 4 26 21 3 18 32 34 32 17 0 -14 -32 -65
-65 -105 -40 -48 -289 -240 -345 -266 -19 -9 -44 -24 -55 -34 -46 -39 -118
-70 -244 -104 -215 -59 -351 -48 -541 42 -213 100 -337 183 -499 332 -86 79
-134 139 -145 180 -6 19 -5 22 3 10 10 -13 12 -13 20 0z"/>
<path d="M2808 10722 c-10 -2 -18 -7 -18 -12 0 -4 8 -7 18 -6 14 1 17 -8 17
-51 0 -29 -3 -53 -7 -53 -4 0 -8 -10 -10 -22 -4 -19 -7 -16 -22 20 -18 41 -20
42 -52 36 -37 -7 -46 8 -16 25 9 6 12 11 5 11 -18 0 -106 -97 -128 -143 -29
-61 -45 -54 -69 31 -21 73 -26 79 -56 61 -10 -5 -11 -8 -2 -9 14 0 16 -26 2
-35 -5 -3 -15 -3 -21 1 -8 4 -7 9 2 15 11 7 10 9 -3 9 -9 0 -19 -4 -23 -9 -8
-15 -137 -81 -156 -81 -12 0 -18 13 -22 56 -7 65 -12 73 -33 52 -14 -14 -14
-17 0 -30 8 -9 12 -19 8 -22 -3 -4 -6 -19 -7 -33 0 -15 -6 -28 -12 -31 -9 -2
-13 10 -13 42 l0 46 -40 -25 c-22 -14 -40 -23 -40 -20 0 3 -11 -2 -25 -11 -13
-9 -33 -13 -44 -9 -18 5 -18 8 -3 45 13 34 13 46 2 79 -12 38 -18 41 -50 28
-59 -23 -161 -37 -130 -17 8 5 11 10 6 10 -18 0 -86 -63 -86 -81 0 -48 -65 -5
-76 50 -7 31 -33 35 -64 8 -17 -14 -50 -102 -50 -133 0 -35 -27 -24 -76 31
l-52 58 -15 -54 c-25 -89 -35 -204 -22 -269 19 -96 22 -147 9 -177 l-13 -33
32 0 c18 0 48 4 67 10 42 12 95 18 325 36 156 12 227 10 335 -9 52 -9 111 -19
130 -22 19 -4 44 -10 55 -15 94 -40 147 -40 305 3 74 20 144 36 155 35 11 0
47 7 80 16 47 13 85 15 170 11 203 -10 361 -22 420 -30 l42 -7 6 39 c3 21 3
97 0 168 -3 72 -5 142 -5 158 -1 15 -4 27 -8 27 -4 0 -7 10 -7 23 0 12 -13 43
-28 68 -21 35 -33 45 -47 41 -15 -4 -16 -7 -6 -19 9 -11 9 -16 -3 -24 -18 -12
-41 -8 -47 9 -2 8 2 10 15 5 17 -6 17 -5 1 13 -9 10 -20 31 -23 47 -4 15 -8
27 -9 27 0 0 -16 4 -34 10 -28 7 -32 7 -23 -4 13 -16 3 -22 -69 -42 -34 -9
-47 -9 -53 -1 -5 9 -11 7 -21 -5 -7 -10 -18 -18 -23 -18 -5 0 -28 -16 -50 -35
-49 -41 -87 -50 -88 -20 0 27 -41 32 -68 8 -39 -35 -97 -63 -129 -63 -29 0
-30 1 -16 18 22 24 58 98 52 105 -3 2 -7 15 -8 28 -6 42 -20 65 -38 61z
m-1120 -100 c3 -18 -2 -22 -22 -22 -28 0 -34 18 -14 38 17 17 32 10 36 -16z
m1482 -101 c0 -8 -81 -51 -96 -51 -22 0 -25 32 -4 37 11 3 20 9 20 14 0 9 48
17 68 11 6 -2 12 -7 12 -11z m-993 -27 c-3 -3 -12 -4 -19 -1 -8 3 -5 6 6 6 11
1 17 -2 13 -5z m881 -43 c3 -8 -1 -12 -9 -9 -7 2 -15 10 -17 17 -3 8 1 12 9 9
7 -2 15 -10 17 -17z m47 -45 c28 -2 67 -11 85 -19 51 -21 183 -167 152 -167
-5 0 -30 16 -56 36 -85 65 -118 74 -245 69 -62 -3 -151 -14 -198 -25 -98 -23
-124 -25 -141 -8 -49 49 44 99 219 116 46 5 95 7 109 6 14 -2 48 -5 75 -8z
m-867 -31 c49 -14 66 -24 73 -42 13 -34 12 -41 -11 -53 -14 -8 -45 -5 -119 10
-69 14 -138 20 -225 20 -143 0 -169 -7 -253 -70 -52 -40 -73 -49 -73 -31 0 18
111 130 153 154 78 46 314 52 455 12z m1276 -195 c4 -20 3 -30 -3 -25 -5 6
-11 28 -15 50 -8 49 8 26 18 -25z m16 -60 c0 -5 -4 -10 -10 -10 -5 0 -10 5
-10 10 0 6 5 10 10 10 6 0 10 -4 10 -10z"/>
<path d="M2096 10012 c-3 -6 -1 -14 5 -17 15 -10 25 3 12 16 -7 7 -13 7 -17 1z"/>
<path d="M2118 9923 c7 -3 16 -2 19 1 4 3 -2 6 -13 5 -11 0 -14 -3 -6 -6z"/>
<path d="M2756 9815 c6 -40 22 -80 30 -73 4 4 -12 56 -28 93 -5 13 -6 7 -2
-20z"/>
<path d="M2250 9806 c0 -31 6 -34 13 -6 3 11 1 23 -4 26 -5 3 -9 -6 -9 -20z"/>
<path d="M1840 9642 c0 -5 7 -15 15 -22 8 -7 15 -8 15 -2 0 5 -7 15 -15 22 -8
7 -15 8 -15 2z"/>
<path d="M2670 9100 c-12 -7 -10 -9 8 -7 12 0 22 5 22 9 0 11 -12 10 -30 -2z"/>
</g>
</svg>
